<svg width="191" height="53" viewBox="0 0 191 53" fill="none" xmlns="http://www.w3.org/2000/svg">
<path d="M6.62285 15.5C7.58952 14.2333 8.90619 13.1667 10.5729 12.3C12.2395 11.4333 14.1229 11 16.2229 11C18.6229 11 20.8062 11.6 22.7729 12.8C24.7729 13.9667 26.3395 15.6167 27.4729 17.75C28.6062 19.8833 29.1729 22.3333 29.1729 25.1C29.1729 27.8667 28.6062 30.35 27.4729 32.55C26.3395 34.7167 24.7729 36.4167 22.7729 37.65C20.8062 38.85 18.6229 39.45 16.2229 39.45C14.1229 39.45 12.2562 39.0333 10.6229 38.2C8.98952 37.3333 7.65619 36.2667 6.62285 35V52.1H0.922852V11.45H6.62285V15.5ZM23.3729 25.1C23.3729 23.2 22.9729 21.5667 22.1729 20.2C21.4062 18.8 20.3729 17.75 19.0729 17.05C17.8062 16.3167 16.4395 15.95 14.9729 15.95C13.5395 15.95 12.1729 16.3167 10.8729 17.05C9.60619 17.7833 8.57285 18.85 7.77285 20.25C7.00619 21.65 6.62285 23.3 6.62285 25.2C6.62285 27.1 7.00619 28.7667 7.77285 30.2C8.57285 31.6 9.60619 32.6667 10.8729 33.4C12.1729 34.1333 13.5395 34.5 14.9729 34.5C16.4395 34.5 17.8062 34.1333 19.0729 33.4C20.3729 32.6333 21.4062 31.5333 22.1729 30.1C22.9729 28.6667 23.3729 27 23.3729 25.1ZM46.7596 39.45C44.1596 39.45 41.8096 38.8667 39.7096 37.7C37.6096 36.5 35.9596 34.8333 34.7596 32.7C33.5596 30.5333 32.9596 28.0333 32.9596 25.2C32.9596 22.4 33.5762 19.9167 34.8096 17.75C36.0429 15.5833 37.7262 13.9167 39.8596 12.75C41.9929 11.5833 44.3762 11 47.0096 11C49.6429 11 52.0262 11.5833 54.1596 12.75C56.2929 13.9167 57.9762 15.5833 59.2096 17.75C60.4429 19.9167 61.0596 22.4 61.0596 25.2C61.0596 28 60.4262 30.4833 59.1596 32.65C57.8929 34.8167 56.1596 36.5 53.9596 37.7C51.7929 38.8667 49.3929 39.45 46.7596 39.45ZM46.7596 34.5C48.2262 34.5 49.5929 34.15 50.8596 33.45C52.1596 32.75 53.2096 31.7 54.0096 30.3C54.8096 28.9 55.2096 27.2 55.2096 25.2C55.2096 23.2 54.8262 21.5167 54.0596 20.15C53.2929 18.75 52.2762 17.7 51.0096 17C49.7429 16.3 48.3762 15.95 46.9096 15.95C45.4429 15.95 44.0762 16.3 42.8096 17C41.5762 17.7 40.5929 18.75 39.8596 20.15C39.1262 21.5167 38.7596 23.2 38.7596 25.2C38.7596 28.1667 39.5096 30.4667 41.0096 32.1C42.5429 33.7 44.4596 34.5 46.7596 34.5ZM76.6943 39.45C74.5277 39.45 72.5777 39.0667 70.8443 38.3C69.1443 37.5 67.7943 36.4333 66.7943 35.1C65.7943 33.7333 65.261 32.2167 65.1943 30.55H71.0943C71.1943 31.7167 71.7443 32.7 72.7443 33.5C73.7777 34.2667 75.061 34.65 76.5943 34.65C78.1943 34.65 79.4277 34.35 80.2943 33.75C81.1943 33.1167 81.6443 32.3167 81.6443 31.35C81.6443 30.3167 81.1443 29.55 80.1443 29.05C79.1777 28.55 77.6277 28 75.4943 27.4C73.4277 26.8333 71.7443 26.2833 70.4443 25.75C69.1443 25.2167 68.011 24.4 67.0443 23.3C66.111 22.2 65.6443 20.75 65.6443 18.95C65.6443 17.4833 66.0777 16.15 66.9443 14.95C67.811 13.7167 69.0443 12.75 70.6443 12.05C72.2777 11.35 74.1443 11 76.2443 11C79.3777 11 81.8943 11.8 83.7943 13.4C85.7277 14.9667 86.761 17.1167 86.8943 19.85H81.1943C81.0943 18.6167 80.5943 17.6333 79.6943 16.9C78.7943 16.1667 77.5777 15.8 76.0443 15.8C74.5443 15.8 73.3943 16.0833 72.5943 16.65C71.7943 17.2167 71.3943 17.9667 71.3943 18.9C71.3943 19.6333 71.661 20.25 72.1943 20.75C72.7277 21.25 73.3777 21.65 74.1443 21.95C74.911 22.2167 76.0443 22.5667 77.5443 23C79.5443 23.5333 81.1777 24.0833 82.4443 24.65C83.7443 25.1833 84.861 25.9833 85.7943 27.05C86.7277 28.1167 87.211 29.5333 87.2443 31.3C87.2443 32.8667 86.811 34.2667 85.9443 35.5C85.0777 36.7333 83.8443 37.7 82.2443 38.4C80.6777 39.1 78.8277 39.45 76.6943 39.45ZM96.3033 7.8C95.27 7.8 94.4033 7.45 93.7033 6.75C93.0033 6.05 92.6533 5.18333 92.6533 4.15C92.6533 3.11666 93.0033 2.25 93.7033 1.55C94.4033 0.849998 95.27 0.499998 96.3033 0.499998C97.3033 0.499998 98.1533 0.849998 98.8533 1.55C99.5533 2.25 99.9033 3.11666 99.9033 4.15C99.9033 5.18333 99.5533 6.05 98.8533 6.75C98.1533 7.45 97.3033 7.8 96.3033 7.8ZM99.1033 11.45V39H93.4033V11.45H99.1033ZM112.287 15.55C113.254 14.2167 114.57 13.1333 116.237 12.3C117.937 11.4333 119.82 11 121.887 11C124.32 11 126.52 11.5833 128.487 12.75C130.454 13.9167 132.004 15.5833 133.137 17.75C134.27 19.8833 134.837 22.3333 134.837 25.1C134.837 27.8667 134.27 30.35 133.137 32.55C132.004 34.7167 130.437 36.4167 128.437 37.65C126.47 38.85 124.287 39.45 121.887 39.45C119.754 39.45 117.854 39.0333 116.187 38.2C114.554 37.3667 113.254 36.3 112.287 35V39H106.587V2H112.287V15.55ZM129.037 25.1C129.037 23.2 128.637 21.5667 127.837 20.2C127.07 18.8 126.037 17.75 124.737 17.05C123.47 16.3167 122.104 15.95 120.637 15.95C119.204 15.95 117.837 16.3167 116.537 17.05C115.27 17.7833 114.237 18.85 113.437 20.25C112.67 21.65 112.287 23.3 112.287 25.2C112.287 27.1 112.67 28.7667 113.437 30.2C114.237 31.6 115.27 32.6667 116.537 33.4C117.837 34.1333 119.204 34.5 120.637 34.5C122.104 34.5 123.47 34.1333 124.737 33.4C126.037 32.6333 127.07 31.5333 127.837 30.1C128.637 28.6667 129.037 27 129.037 25.1ZM146.174 2V39H140.474V2H146.174ZM178.907 24.55C178.907 25.5833 178.841 26.5167 178.707 27.35H157.657C157.824 29.55 158.641 31.3167 160.107 32.65C161.574 33.9833 163.374 34.65 165.507 34.65C168.574 34.65 170.741 33.3667 172.007 30.8H178.157C177.324 33.3333 175.807 35.4167 173.607 37.05C171.441 38.65 168.741 39.45 165.507 39.45C162.874 39.45 160.507 38.8667 158.407 37.7C156.341 36.5 154.707 34.8333 153.507 32.7C152.341 30.5333 151.757 28.0333 151.757 25.2C151.757 22.3667 152.324 19.8833 153.457 17.75C154.624 15.5833 156.241 13.9167 158.307 12.75C160.407 11.5833 162.807 11 165.507 11C168.107 11 170.424 11.5667 172.457 12.7C174.491 13.8333 176.074 15.4333 177.207 17.5C178.341 19.5333 178.907 21.8833 178.907 24.55ZM172.957 22.75C172.924 20.65 172.174 18.9667 170.707 17.7C169.241 16.4333 167.424 15.8 165.257 15.8C163.291 15.8 161.607 16.4333 160.207 17.7C158.807 18.9333 157.974 20.6167 157.707 22.75H172.957Z" fill="black"/>
<path d="M186.817 39.35C185.783 39.35 184.917 39 184.217 38.3C183.517 37.6 183.167 36.7333 183.167 35.7C183.167 34.6667 183.517 33.8 184.217 33.1C184.917 32.4 185.783 32.05 186.817 32.05C187.817 32.05 188.667 32.4 189.367 33.1C190.067 33.8 190.417 34.6667 190.417 35.7C190.417 36.7333 190.067 37.6 189.367 38.3C188.667 39 187.817 39.35 186.817 39.35Z" fill="#FF7F00"/>
</svg>
